<?xml version="1.0" standalone="no"?>
<!DOCTYPE svg PUBLIC "-//W3C//DTD SVG 20010904//EN"
 "http://www.w3.org/TR/2001/REC-SVG-20010904/DTD/svg10.dtd">
<svg version="1.0" xmlns="http://www.w3.org/2000/svg"
 width="510.000000pt" height="510.000000pt" viewBox="0 0 510.000000 510.000000"
 preserveAspectRatio="xMidYMid meet">
<metadata>
Created by potrace 1.11, written by Peter Selinger 2001-2013
</metadata>
<g transform="translate(0.000000,510.000000) scale(0.100000,-0.100000)"
fill="#000000" stroke="none">
<path d="M2328 5096 c-1 -2 -33 -6 -69 -10 -74 -7 -296 -43 -319 -52 -8 -3
-26 -8 -40 -10 -155 -28 -500 -170 -684 -282 -37 -23 -72 -42 -76 -42 -5 0
-10 -3 -12 -8 -1 -4 -36 -30 -76 -57 -41 -27 -86 -61 -102 -75 -16 -14 -44
-36 -62 -50 -133 -102 -336 -323 -462 -505 -149 -213 -287 -498 -347 -715 -7
-25 -13 -47 -14 -50 -1 -3 -7 -25 -14 -50 -23 -81 -22 -85 17 -39 58 68 131
139 207 202 100 84 105 87 112 87 3 0 15 8 25 17 26 23 76 53 178 105 47 24
88 48 92 53 4 6 8 7 8 2 0 -4 17 1 37 11 21 11 63 27 93 36 30 10 62 20 70 23
41 16 146 41 200 49 25 3 47 8 51 9 28 17 351 25 472 12 283 -30 549 -128 794
-291 99 -65 133 -90 185 -137 l28 -25 -67 -70 c-38 -39 -115 -121 -172 -182
l-104 -111 -58 45 c-242 186 -513 286 -779 287 -104 1 -165 -4 -226 -17 -12
-2 -37 -7 -56 -10 -19 -3 -73 -19 -119 -36 -46 -17 -89 -32 -95 -33 -6 -2 -23
-10 -37 -20 -15 -9 -30 -17 -35 -17 -17 0 -200 -127 -248 -172 -93 -85 -151
-152 -210 -240 -52 -78 -114 -193 -114 -213 0 -7 -4 -15 -8 -17 -8 -3 -59
-152 -67 -196 -2 -12 -6 -26 -9 -30 -3 -5 -8 -35 -11 -68 -3 -32 -8 -70 -11
-84 -5 -30 -5 -243 0 -282 2 -14 7 -39 10 -55 3 -15 9 -46 12 -68 3 -22 10
-48 15 -57 5 -10 8 -18 5 -18 -6 0 49 -151 80 -217 64 -136 169 -278 293 -395
39 -38 73 -68 76 -68 3 0 30 -18 59 -39 81 -60 163 -101 311 -157 11 -4 25 -8
32 -10 7 -1 40 -9 75 -18 94 -23 160 -30 288 -29 96 1 215 8 215 13 0 1 11 3
25 6 156 26 346 81 440 127 l45 22 1 265 c0 146 -2 271 -4 278 -3 10 -63 12
-276 12 -149 -1 -278 -1 -286 -1 -13 1 -15 34 -15 237 l0 236 32 -4 c18 -2 33
-1 33 3 0 3 15 3 33 0 17 -4 49 -4 70 0 20 3 37 4 37 0 0 -8 846 -5 859 4 6 3
14 -1 17 -9 3 -9 7 -305 8 -658 3 -682 3 -680 -43 -715 -40 -31 -266 -135
-376 -173 -77 -27 -195 -63 -205 -63 -3 0 -16 -4 -30 -9 -14 -5 -36 -12 -50
-14 -14 -3 -56 -11 -95 -19 -95 -19 -175 -30 -289 -40 -33 -2 -60 -6 -62 -8
-3 -3 197 -75 229 -82 9 -2 21 -6 25 -9 5 -3 19 -7 33 -10 13 -3 51 -13 84
-21 75 -19 148 -34 200 -41 22 -3 51 -7 65 -10 136 -23 670 -26 670 -4 0 3 8
6 18 6 40 1 124 16 227 40 61 14 118 27 127 29 9 2 26 9 37 15 12 6 21 9 21 6
0 -7 169 55 270 99 208 89 482 261 638 398 305 270 519 564 690 947 69 154
161 489 177 640 2 19 7 71 11 115 15 148 10 416 -10 565 -2 14 -7 48 -11 75
-3 28 -8 57 -10 65 -3 8 -7 33 -11 55 -3 22 -8 43 -11 48 -2 4 -6 18 -9 31
-21 117 -107 353 -190 521 -65 131 -188 337 -205 343 -5 2 -9 8 -9 14 0 19
-135 180 -250 297 -113 116 -267 251 -329 287 -17 10 -31 22 -31 26 0 4 -7 8
-15 8 -8 0 -15 5 -15 10 0 6 -4 10 -9 10 -5 0 -36 17 -68 39 -32 21 -105 63
-163 93 -92 49 -141 71 -265 123 -44 18 -145 53 -160 55 -3 0 -23 7 -44 15
-67 23 -282 69 -376 80 -27 4 -63 9 -80 11 -33 6 -451 14 -457 10z"/>
</g>
</svg>
